<svg width="64" height="64" viewBox="0 0 64 64" fill="none" xmlns="http://www.w3.org/2000/svg">
<path d="M25.5264 46.5371C24.7071 46.5371 24.0653 46.3186 23.601 45.8816C23.1367 45.4173 22.9046 44.7619 22.9046 43.9152V40.7198H12.7857C11.9391 40.7198 11.2563 40.5423 10.7374 40.1872C10.2458 39.8322 10 39.2723 10 38.5076C10 38.0706 10.1092 37.5927 10.3277 37.0738C10.5735 36.5548 10.9969 35.8721 11.5977 35.0254L22.8226 18.7616C23.205 18.188 23.6283 17.7511 24.0926 17.4506C24.5569 17.1502 25.0895 17 25.6903 17C26.4004 17 26.9876 17.2185 27.4519 17.6555C27.9162 18.0651 28.1483 18.7206 28.1483 19.6219V36.3773H30.1557C30.9477 36.3773 31.5349 36.5685 31.9173 36.9509C32.3269 37.3059 32.5318 37.8385 32.5318 38.5486C32.5318 39.2587 32.3269 39.8049 31.9173 40.1872C31.5349 40.5423 30.9477 40.7198 30.1557 40.7198H28.1483V43.9152C28.1483 44.7619 27.9162 45.4173 27.4519 45.8816C26.9876 46.3186 26.3458 46.5371 25.5264 46.5371ZM22.9046 36.3773V23.5957H24.0926L14.4244 37.7702V36.3773H22.9046Z" fill="#8E8E92"/>
<path d="M44.2678 45.5094C43.594 45.5094 43.0758 45.328 42.713 44.9653C42.3502 44.5766 42.1689 44.0454 42.1689 43.3716V37.5802H36.494C35.8462 37.5802 35.3409 37.4117 34.9781 37.0749C34.6153 36.7121 34.434 36.2068 34.434 35.559C34.434 34.9112 34.6153 34.4188 34.9781 34.082C35.3409 33.7192 35.8462 33.5378 36.494 33.5378H42.1689V27.9796C42.1689 27.2799 42.3502 26.7487 42.713 26.386C43.0758 26.0232 43.607 25.8418 44.3066 25.8418C44.9804 25.8418 45.4857 26.0232 45.8225 26.386C46.1853 26.7487 46.3667 27.2799 46.3667 27.9796V33.5378H52.0415C52.7153 33.5378 53.2206 33.7192 53.5574 34.082C53.9202 34.4188 54.1016 34.9112 54.1016 35.559C54.1016 36.2068 53.9202 36.7121 53.5574 37.0749C53.2206 37.4117 52.7153 37.5802 52.0415 37.5802H46.3667V43.3716C46.3667 44.0454 46.1853 44.5766 45.8225 44.9653C45.4857 45.328 44.9674 45.5094 44.2678 45.5094Z" fill="#8E8E92"/>
</svg>
