<svg width="64" height="64" viewBox="0 0 64 64" fill="none" xmlns="http://www.w3.org/2000/svg">
<path d="M42.7799 7.26767C42.0992 6.79546 41.1646 6.96446 40.6924 7.64514C40.2202 8.32581 40.3892 9.2604 41.0699 9.7326C46.5389 13.5266 50.1151 19.8459 50.1151 27.0001C50.1151 38.5981 40.7131 48.0001 29.1151 48.0001C22.4572 48.0001 16.5235 44.9035 12.6737 40.0661C12.1579 39.4179 11.2142 39.3106 10.566 39.8265C9.91779 40.3423 9.81051 41.286 10.3264 41.9342C14.6244 47.3348 21.2079 50.8436 28.615 50.995V53.5001H22.115C21.2866 53.5001 20.615 54.1717 20.615 55.0001C20.615 55.8286 21.2866 56.5001 22.115 56.5001H38.115C38.9435 56.5001 39.615 55.8286 39.615 55.0001C39.615 54.1717 38.9435 53.5001 38.115 53.5001H31.615V50.8715C43.6951 49.6212 53.1151 39.4108 53.1151 27.0001C53.1151 18.8211 49.0223 11.5982 42.7799 7.26767Z" fill="#8A8A8D"/>
<path fill-rule="evenodd" clip-rule="evenodd" d="M13.4602 35.2831C8.8062 26.1621 12.7602 14.5341 21.9322 10.3691C24.1962 9.34113 27.6232 8.50013 29.5482 8.50013C34.6272 8.50013 40.8602 11.6871 44.1072 15.9451C48.0062 21.0571 48.6622 29.3521 45.6362 35.2831C39.0282 48.2361 20.0682 48.2361 13.4602 35.2831ZM42.5482 19.5681C42.5482 18.0691 38.1592 14.1911 34.9382 12.8461C30.5382 11.0071 28.9042 11.0931 28.0802 13.2061C27.5862 14.4701 28.4982 15.9391 31.3672 18.4981L35.3372 22.0411L32.1932 23.9161C30.4632 24.9481 27.5862 26.5681 25.7982 27.5161C22.5672 29.2301 22.5482 29.2271 22.5482 26.9071C22.5482 24.1761 20.8272 22.7771 19.3212 24.2831C18.5842 25.0201 19.0612 26.2771 20.9082 28.4721C23.9682 32.1081 24.1192 33.1951 21.9902 36.2351C19.9862 39.0971 20.7172 40.1551 25.6062 41.4721C32.5752 43.3481 40.5482 39.7891 40.5482 34.8011C40.5482 31.9771 37.9242 31.6441 35.8562 34.2061C34.5352 35.8441 34.4772 35.8281 34.9492 33.9561C35.2262 32.8561 35.7762 30.6071 36.1712 28.9591C36.5662 27.3101 38.1622 24.6881 39.7192 23.1321C41.2752 21.5751 42.5482 19.9721 42.5482 19.5681ZM16.6232 31.7651C16.6642 31.3201 16.8092 28.3691 16.9452 25.2061C17.0812 22.0431 17.0632 19.4561 16.9052 19.4561C14.8862 19.4561 13.6552 30.7861 15.5482 31.9561C16.0982 32.2961 16.5822 32.2101 16.6232 31.7651Z" fill="#8A8A8D"/>
</svg>
