<svg width="67" height="111" viewBox="0 0 67 111" fill="none" xmlns="http://www.w3.org/2000/svg">
<path d="M19 95C19 93.3431 20.3431 92 22 92H44C45.6569 92 47 93.3431 47 95C47 96.6569 45.6569 98 44 98H22C20.3431 98 19 96.6569 19 95Z" fill="#8A898E"/>
<path d="M26 13C24.3431 13 23 14.3431 23 16C23 17.6569 24.3431 19 26 19H40C41.6569 19 43 17.6569 43 16C43 14.3431 41.6569 13 40 13H26Z" fill="#8A898E"/>
<path fill-rule="evenodd" clip-rule="evenodd" d="M13 0C5.8203 0 0 5.8203 0 13V98C0 105.18 5.8203 111 13 111H54C61.1797 111 67 105.18 67 98V13C67 5.8203 61.1797 0 54 0H13ZM54 8H13C10.2386 8 8 10.2386 8 13V98C8 100.761 10.2386 103 13 103H54C56.7614 103 59 100.761 59 98V13C59 10.2386 56.7614 8 54 8Z" fill="#8A898E"/>
</svg>
