<svg width="64" height="64" viewBox="0 0 64 64" fill="none" xmlns="http://www.w3.org/2000/svg">
<path d="M10.7857 46.2094C9.88447 46.2094 9.18804 45.9772 8.69644 45.5129C8.23215 45.0213 8 44.3249 8 43.4236V20.1135C8 19.2122 8.23215 18.5294 8.69644 18.0651C9.18804 17.5735 9.88447 17.3277 10.7857 17.3277H25.4109C26.0937 17.3277 26.6126 17.5053 26.9676 17.8603C27.35 18.2154 27.5412 18.7206 27.5412 19.3761C27.5412 20.0589 27.35 20.5914 26.9676 20.9738C26.6126 21.3288 26.0937 21.5064 25.4109 21.5064H13.0389V29.4539H24.5096C25.2197 29.4539 25.7523 29.6314 26.1073 29.9865C26.4624 30.3415 26.6399 30.8605 26.6399 31.5432C26.6399 32.226 26.4624 32.7449 26.1073 33.1C25.7523 33.455 25.2197 33.6325 24.5096 33.6325H13.0389V42.0307H25.4109C26.0937 42.0307 26.6126 42.2083 26.9676 42.5633C27.35 42.9184 27.5412 43.4373 27.5412 44.1201C27.5412 44.8028 27.35 45.3217 26.9676 45.6768C26.6126 46.0318 26.0937 46.2094 25.4109 46.2094H10.7857Z" fill="#8E8E92"/>
<path d="M34.9021 46.5371C34.1101 46.5371 33.4956 46.3186 33.0586 45.8816C32.6489 45.4446 32.4441 44.8165 32.4441 43.9972V19.6219C32.4441 18.7752 32.6489 18.1334 33.0586 17.6964C33.4956 17.2321 34.0554 17 34.7382 17C35.3664 17 35.8307 17.1229 36.1311 17.3687C36.4588 17.5872 36.8412 17.9695 37.2782 18.5158L52.9685 38.8763H51.9033V19.499C51.9033 18.707 52.1082 18.0924 52.5178 17.6555C52.9548 17.2185 53.5693 17 54.3613 17C55.1534 17 55.7542 17.2185 56.1639 17.6555C56.5736 18.0924 56.7784 18.707 56.7784 19.499V44.0791C56.7784 44.8438 56.5872 45.4446 56.2048 45.8816C55.8225 46.3186 55.3036 46.5371 54.6481 46.5371C54.02 46.5371 53.5147 46.4142 53.1323 46.1684C52.7773 45.9226 52.3813 45.5266 51.9443 44.9804L36.295 24.6198H37.3191V43.9972C37.3191 44.8165 37.1143 45.4446 36.7046 45.8816C36.295 46.3186 35.6941 46.5371 34.9021 46.5371Z" fill="#8E8E92"/>
</svg>
