<svg width="64" height="64" viewBox="0 0 64 64" fill="none" xmlns="http://www.w3.org/2000/svg">
<path d="M20.5264 46.5371C19.7071 46.5371 19.0653 46.3186 18.601 45.8816C18.1367 45.4173 17.9046 44.7619 17.9046 43.9152V40.7198H7.78575C6.9391 40.7198 6.25632 40.5423 5.7374 40.1872C5.2458 39.8322 5 39.2723 5 38.5076C5 38.0706 5.10924 37.5927 5.32773 37.0738C5.57354 36.5548 5.99686 35.8721 6.59771 35.0254L17.8226 18.7616C18.205 18.188 18.6283 17.7511 19.0926 17.4506C19.5569 17.1502 20.0895 17 20.6903 17C21.4004 17 21.9876 17.2185 22.4519 17.6555C22.9162 18.0651 23.1483 18.7206 23.1483 19.6219V36.3773H25.1557C25.9477 36.3773 26.5349 36.5685 26.9173 36.9509C27.3269 37.3059 27.5318 37.8385 27.5318 38.5486C27.5318 39.2587 27.3269 39.8049 26.9173 40.1872C26.5349 40.5423 25.9477 40.7198 25.1557 40.7198H23.1483V43.9152C23.1483 44.7619 22.9162 45.4173 22.4519 45.8816C21.9876 46.3186 21.3458 46.5371 20.5264 46.5371ZM17.9046 36.3773V23.5957H19.0926L9.42442 37.7702V36.3773H17.9046Z" fill="#8E8E92"/>
<path d="M32.2679 46.4142C31.3393 46.4142 30.5883 46.1274 30.0147 45.5539C29.4685 44.9804 29.1954 44.243 29.1954 43.3417C29.1954 42.4677 29.4685 41.7576 30.0147 41.2114C30.5883 40.6379 31.3393 40.3511 32.2679 40.3511C33.2238 40.3511 33.9612 40.6379 34.4801 41.2114C35.0263 41.7576 35.2995 42.4677 35.2995 43.3417C35.2995 44.243 35.0263 44.9804 34.4801 45.5539C33.9612 46.1274 33.2238 46.4142 32.2679 46.4142Z" fill="#8E8E92"/>
<path d="M43.3309 46.5371C42.7027 46.5371 42.1838 46.3869 41.7741 46.0865C41.3645 45.786 41.1187 45.39 41.0367 44.8984C40.9548 44.3795 41.0777 43.806 41.4054 43.1778L53.7774 19.9086V21.7112H40.5042C39.7668 21.7112 39.1932 21.52 38.7836 21.1377C38.4012 20.7553 38.21 20.2227 38.21 19.5399C38.21 18.8299 38.4012 18.2836 38.7836 17.9013C39.1932 17.5189 39.7668 17.3277 40.5042 17.3277H56.3583C57.0957 17.3277 57.6966 17.5189 58.1609 17.9013C58.6252 18.2836 58.8573 18.8299 58.8573 19.5399C58.8573 20.1408 58.7754 20.6734 58.6115 21.1377C58.4476 21.5746 58.2292 22.0526 57.956 22.5715L46.3215 44.8165C46.021 45.4173 45.625 45.8543 45.1334 46.1274C44.6691 46.4005 44.0683 46.5371 43.3309 46.5371Z" fill="#8E8E92"/>
</svg>
