<svg width="102" height="64" viewBox="0 0 102 64" fill="none" xmlns="http://www.w3.org/2000/svg">
<path d="M17.1209 46.619C16.4927 46.619 15.9738 46.4688 15.5641 46.1684C15.1544 45.868 14.9086 45.472 14.8267 44.9804C14.7448 44.4614 14.8677 43.8879 15.1954 43.2597L27.5674 19.9906V21.7931H14.2941C13.5567 21.7931 12.9832 21.6019 12.5735 21.2196C12.1912 20.8372 12 20.3047 12 19.6219C12 18.9118 12.1912 18.3656 12.5735 17.9832C12.9832 17.6008 13.5567 17.4097 14.2941 17.4097H30.1483C30.8857 17.4097 31.4866 17.6008 31.9509 17.9832C32.4151 18.3656 32.6473 18.9118 32.6473 19.6219C32.6473 20.2227 32.5654 20.7553 32.4015 21.2196C32.2376 21.6566 32.0191 22.1345 31.746 22.6534L20.1114 44.8984C19.811 45.4993 19.415 45.9362 18.9234 46.2094C18.4591 46.4825 17.8583 46.619 17.1209 46.619Z" fill="#8E8E92"/>
<path d="M40.6608 46.619C40.0326 46.619 39.5137 46.4688 39.104 46.1684C38.6944 45.868 38.4486 45.472 38.3666 44.9804C38.2847 44.4614 38.4076 43.8879 38.7353 43.2597L51.1073 19.9906V21.7931H37.8341C37.0967 21.7931 36.5231 21.6019 36.1135 21.2196C35.7311 20.8372 35.5399 20.3047 35.5399 19.6219C35.5399 18.9118 35.7311 18.3656 36.1135 17.9832C36.5231 17.6008 37.0967 17.4097 37.8341 17.4097H53.6882C54.4256 17.4097 55.0265 17.6008 55.4908 17.9832C55.9551 18.3656 56.1872 18.9118 56.1872 19.6219C56.1872 20.2227 56.1053 20.7553 55.9414 21.2196C55.7776 21.6566 55.5591 22.1345 55.2859 22.6534L43.6514 44.8984C43.3509 45.4993 42.9549 45.9362 42.4633 46.2094C41.999 46.4825 41.3982 46.619 40.6608 46.619Z" fill="#8E8E92"/>
<path d="M62.2753 46.4961C61.3467 46.4961 60.5956 46.2094 60.0221 45.6358C59.4759 45.0623 59.2028 44.3249 59.2028 43.4236C59.2028 42.5497 59.4759 41.8396 60.0221 41.2933C60.5956 40.7198 61.3467 40.433 62.2753 40.433C63.2312 40.433 63.9686 40.7198 64.4875 41.2933C65.0337 41.8396 65.3068 42.5497 65.3068 43.4236C65.3068 44.3249 65.0337 45.0623 64.4875 45.6358C63.9686 46.2094 63.2312 46.4961 62.2753 46.4961Z" fill="#8E8E92"/>
<path d="M79.6471 46.701C77.2711 46.701 75.2364 46.1411 73.5431 45.0213C71.8771 43.8743 70.6071 42.2356 69.7332 40.1053C68.8592 37.975 68.4222 35.3941 68.4222 32.3626C68.4222 29.9046 68.6953 27.7333 69.2416 25.8488C69.8151 23.9371 70.6344 22.3257 71.6996 21.0148C72.7647 19.7038 74.062 18.707 75.5914 18.0242C77.1482 17.3414 78.8961 17 80.8352 17C82.0369 17 83.2522 17.1912 84.4812 17.5735C85.7375 17.9286 86.9119 18.4748 88.0044 19.2122C88.4414 19.4853 88.7281 19.8404 88.8647 20.2773C89.0012 20.7143 89.0149 21.1513 88.9056 21.5883C88.8237 21.998 88.6325 22.3667 88.3321 22.6944C88.059 22.9948 87.7039 23.186 87.267 23.2679C86.83 23.3226 86.352 23.1996 85.8331 22.8992C84.9045 22.353 84.0306 21.9706 83.2113 21.7522C82.3919 21.5337 81.5726 21.4244 80.7532 21.4244C79.1692 21.4244 77.8309 21.7931 76.7385 22.5305C75.646 23.2679 74.813 24.374 74.2395 25.8488C73.6933 27.3236 73.4202 29.1672 73.4202 31.3794V34.4519H72.9286C73.1471 33.059 73.5977 31.871 74.2805 30.8878C74.9906 29.8772 75.8918 29.1125 76.9843 28.5936C78.0767 28.0474 79.2921 27.7743 80.6303 27.7743C82.2963 27.7743 83.7711 28.1703 85.0548 28.9623C86.3384 29.7543 87.3489 30.8468 88.0863 32.2397C88.8237 33.6325 89.1924 35.2302 89.1924 37.0328C89.1924 38.89 88.7827 40.5559 87.9634 42.0307C87.1714 43.4782 86.0516 44.6253 84.6041 45.472C83.1839 46.2913 81.5316 46.701 79.6471 46.701ZM79.3604 42.5223C80.3436 42.5223 81.2039 42.3039 81.9413 41.8669C82.706 41.4299 83.2932 40.8154 83.7029 40.0234C84.1125 39.204 84.3174 38.2754 84.3174 37.2376C84.3174 36.1725 84.1125 35.2439 83.7029 34.4519C83.2932 33.6598 82.706 33.0453 81.9413 32.6084C81.2039 32.1441 80.3436 31.9119 79.3604 31.9119C78.3772 31.9119 77.5169 32.1441 76.7795 32.6084C76.0421 33.0453 75.4549 33.6598 75.0179 34.4519C74.6082 35.2439 74.4034 36.1725 74.4034 37.2376C74.4034 38.2754 74.6082 39.204 75.0179 40.0234C75.4549 40.8154 76.0421 41.4299 76.7795 41.8669C77.5169 42.3039 78.3772 42.5223 79.3604 42.5223Z" fill="#8E8E92"/>
</svg>
