<svg width="74" height="16" viewBox="0 0 74 16" fill="none" xmlns="http://www.w3.org/2000/svg">
<path d="M7.49696 1.54819C7.6553 1.06089 8.3447 1.06089 8.50304 1.54819L9.67736 5.16239C9.74817 5.38032 9.95125 5.52786 10.1804 5.52786H13.9806C14.493 5.52786 14.706 6.18353 14.2915 6.4847L11.2171 8.71839C11.0317 8.85308 10.9541 9.09182 11.0249 9.30975L12.1992 12.9239C12.3576 13.4112 11.7998 13.8165 11.3853 13.5153L8.31089 11.2816C8.12551 11.1469 7.87449 11.1469 7.68911 11.2816L4.61469 13.5153C4.20016 13.8165 3.64242 13.4112 3.80076 12.9239L4.97508 9.30975C5.04589 9.09182 4.96832 8.85308 4.78294 8.71839L1.70852 6.4847C1.29399 6.18353 1.50703 5.52786 2.01941 5.52786H5.8196C6.04875 5.52786 6.25183 5.38031 6.32264 5.16239L7.49696 1.54819Z" fill="#8A8A8D"/>
<path d="M21.997 1.54819C22.1553 1.06089 22.8447 1.06089 23.003 1.54819L24.1774 5.16239C24.2482 5.38032 24.4513 5.52786 24.6804 5.52786H28.4806C28.993 5.52786 29.206 6.18353 28.7915 6.4847L25.7171 8.71839C25.5317 8.85308 25.4541 9.09182 25.5249 9.30975L26.6992 12.9239C26.8576 13.4112 26.2998 13.8165 25.8853 13.5153L22.8109 11.2816C22.6255 11.1469 22.3745 11.1469 22.1891 11.2816L19.1147 13.5153C18.7002 13.8165 18.1424 13.4112 18.3008 12.9239L19.4751 9.30975C19.5459 9.09182 19.4683 8.85308 19.2829 8.71839L16.2085 6.4847C15.794 6.18353 16.007 5.52786 16.5194 5.52786H20.3196C20.5487 5.52786 20.7518 5.38031 20.8226 5.16239L21.997 1.54819Z" fill="#8A8A8D"/>
<path d="M36.497 1.54819C36.6553 1.06089 37.3447 1.06089 37.503 1.54819L38.6774 5.16239C38.7482 5.38032 38.9513 5.52786 39.1804 5.52786H42.9806C43.493 5.52786 43.706 6.18353 43.2915 6.4847L40.2171 8.71839C40.0317 8.85308 39.9541 9.09182 40.0249 9.30975L41.1992 12.9239C41.3576 13.4112 40.7998 13.8165 40.3853 13.5153L37.3109 11.2816C37.1255 11.1469 36.8745 11.1469 36.6891 11.2816L33.6147 13.5153C33.2002 13.8165 32.6424 13.4112 32.8008 12.9239L33.9751 9.30975C34.0459 9.09182 33.9683 8.85308 33.7829 8.71839L30.7085 6.4847C30.294 6.18353 30.507 5.52786 31.0194 5.52786H34.8196C35.0487 5.52786 35.2518 5.38031 35.3226 5.16239L36.497 1.54819Z" fill="#8A8A8D"/>
<path d="M50.997 1.54819C51.1553 1.06089 51.8447 1.06089 52.003 1.54819L53.1774 5.16239C53.2482 5.38032 53.4513 5.52786 53.6804 5.52786H57.4806C57.993 5.52786 58.206 6.18353 57.7915 6.4847L54.7171 8.71839C54.5317 8.85308 54.4541 9.09182 54.5249 9.30975L55.6992 12.9239C55.8576 13.4112 55.2998 13.8165 54.8853 13.5153L51.8109 11.2816C51.6255 11.1469 51.3745 11.1469 51.1891 11.2816L48.1147 13.5153C47.7002 13.8165 47.1424 13.4112 47.3008 12.9239L48.4751 9.30975C48.5459 9.09182 48.4683 8.85308 48.2829 8.71839L45.2085 6.4847C44.794 6.18353 45.007 5.52786 45.5194 5.52786H49.3196C49.5487 5.52786 49.7518 5.38031 49.8226 5.16239L50.997 1.54819Z" fill="#8A8A8D"/>
<path d="M65.497 1.54819C65.6553 1.06089 66.3447 1.06089 66.503 1.54819L67.6774 5.16239C67.7482 5.38032 67.9513 5.52786 68.1804 5.52786H71.9806C72.493 5.52786 72.706 6.18353 72.2915 6.4847L69.2171 8.71839C69.0317 8.85308 68.9541 9.09182 69.0249 9.30975L70.1992 12.9239C70.3576 13.4112 69.7998 13.8165 69.3853 13.5153L66.3109 11.2816C66.1255 11.1469 65.8745 11.1469 65.6891 11.2816L62.6147 13.5153C62.2002 13.8165 61.6424 13.4112 61.8008 12.9239L62.9751 9.30975C63.0459 9.09182 62.9683 8.85308 62.7829 8.71839L59.7085 6.4847C59.294 6.18353 59.507 5.52786 60.0194 5.52786H63.8196C64.0487 5.52786 64.2518 5.38031 64.3226 5.16239L65.497 1.54819Z" fill="#8A8A8D"/>
</svg>
